# xmcd
#
# Track frame offsets:
#	150
#	11582
#	29087
#	38020
#	49400
#	60720
#	73830
#	87167
#	98467
#	112855
#	125770
#	138800
#	152357
#	161312
#	173242
#	184522
#	198007
#	215247
#	226295
#	240862
#
# Disc length: 3413 seconds
#
# Revision: 1
# Processed by: cddbd v1.5.1PL0 Copyright (c) Steve Scherf et al.
# Submitted via: CDex 1.50Beta5
#
DISCID=fe0d5314
DTITLE=Various Artist - OLDIES BEST HITS8
DYEAR=1900
DGENRE=
TTITLE0=シルヴィ・ヴァルタン/アイドルを探せ
TTITLE1=シルヴィ・ヴァルタン/悲しみの兵士
TTITLE2=アストロノウツ/太陽の彼方に
TTITLE3=ジャンニ・モランディ/サン・ライト・ツイスト
TTITLE4=リトル・ペギー・マーチ/アイ・ウィル・フォロー・ヒム
TTITLE5=ペギー・マーチ/忘れないわ
TTITLE6=コレット・テンピア楽団/太陽はひとりぼっち
TTITLE7=エリオ・ブルーー楽団/禁じられた恋の島
TTITLE8=シルヴィ・ヴァルタン/恋はイエ・イエ
TTITLE9=エンニオ・モリオーエ楽団/夕日のガンマン
TTITLE10=ヘドバとダビデ/ナオミの夢
TTITLE11=ゲル・ガーネット/太陽に歌って
TTITLE12=アル・ハート/ジャワの夜は更けて
TTITLE13=スキーター・デイヴィス/エンド・オブ・ザ・ワールド
TTITLE14=バリ・サドラー軍曹/悲しき戦場
TTITLE15=ジェファーソン・エアプレイン/あなただけを
TTITLE16=ゲス・フー/アメリカン・ウーマン
TTITLE17=ホセ・フリシアーノ/雨のささやき
TTITLE18=マイク・ネスミスとファースト・ナソナル・バンド/シルバー・ムーン
TTITLE19=ニルソン/ウィズアウト・ユー
EXTD=
EXTT0=
EXTT1=
EXTT2=
EXTT3=
EXTT4=
EXTT5=
EXTT6=
EXTT7=
EXTT8=
EXTT9=
EXTT10=
EXTT11=
EXTT12=
EXTT13=
EXTT14=
EXTT15=
EXTT16=
EXTT17=
EXTT18=
EXTT19=
PLAYORDER=
